<?xml version="1.0" encoding="utf-8"?>
<!-- Generator: Adobe Illustrator 23.0.3, SVG Export Plug-In . SVG Version: 6.00 Build 0)  -->
<svg version="1.1" id="Layer_1" xmlns="http://www.w3.org/2000/svg" xmlns:xlink="http://www.w3.org/1999/xlink" x="0px" y="0px"
	 viewBox="0 0 228 61.6" style="enable-background:new 0 0 228 61.6;" xml:space="preserve">
<style type="text/css">
	.st0{fill:#FFFFFF;}
	.st1{fill:#29E7D6;}
	.st2{fill:url(#SVGID_1_);}
	.st3{fill:url(#SVGID_2_);}
	.st4{clip-path:url(#SVGID_4_);fill:#29E7D6;}
</style>
<g>
	<g>
		<path class="st0" d="M121.5,16.4L121.5,16.4c-2.3-0.2-4,1.2-4,3.6v6.9h-3.7V13h3.9c0,0.7-0.1,1.4-0.3,2c0,0,0,0,0-0.1
			c0.2-0.4,0.5-0.7,0.8-1l0,0c0,0,0.1-0.1,0.1-0.1c0.2-0.2,0.5-0.4,0.8-0.6c0,0,0,0,0,0c0,0,0,0,0.1,0s0,0,0.1,0l0,0
			c0.9-0.4,2-0.5,3.3-0.1l-0.4,3.4c-0.1,0-0.1,0-0.2,0c0,0,0,0-0.1,0c-0.1,0-0.1,0-0.2,0c0,0,0,0-0.1,0
			C121.6,16.4,121.5,16.4,121.5,16.4z"/>
	</g>
	<g>
		<rect x="144.1" y="13" class="st0" width="3.7" height="13.9"/>
	</g>
	<g>
		<rect x="144.1" y="7.9" class="st0" width="3.7" height="2.8"/>
	</g>
	<g>
		<rect x="125.4" y="7.9" class="st0" width="3.7" height="2.8"/>
	</g>
	<g>
		<rect x="184.4" y="7.9" class="st0" width="3.7" height="19"/>
	</g>
	<g>
		<path class="st0" d="M140.7,16.2V13h-4.6V7.9h-3.7V21c0,2,0.3,3.2,1,4.1c0.9,1.3,2.6,2,4.8,2c0.7,0,1.9-0.1,2.4-0.3l-0.7-3.1
			c-0.3,0-0.9,0.1-1.4,0.1c-0.9,0-1.5-0.3-1.9-0.7c-0.3-0.4-0.5-0.9-0.5-1.7v-5.2H140.7z"/>
	</g>
	<g>
		<path class="st0" d="M176.9,13v0.8c-1.1-0.7-2.3-1-3.7-1c-3.9,0-7.1,3.2-7.1,7.1s3.2,7.1,7.1,7.1c1.3,0,2.6-0.4,3.7-1v0.8h3.7V13
			H176.9z M173.3,23.7c-2.1,0-3.7-1.7-3.7-3.7c0-2.1,1.7-3.7,3.7-3.7c2.1,0,3.7,1.7,3.7,3.7S175.3,23.7,173.3,23.7z"/>
	</g>
	<g>
		<path class="st0" d="M161.2,22.1c-0.7,0.9-1.8,1.5-3,1.5c-2.1,0-3.7-1.7-3.7-3.7s1.7-3.7,3.7-3.7c1.2,0,2.3,0.6,3,1.5l2.8-2
			c-1.3-1.8-3.4-2.9-5.8-2.9c-3.9,0-7.1,3.2-7.1,7.1s3.2,7.1,7.1,7.1c2.4,0,4.5-1.1,5.8-2.9L161.2,22.1z"/>
	</g>
	<g>
		<rect x="125.4" y="13" class="st0" width="3.7" height="13.9"/>
	</g>
	<g>
		<path class="st0" d="M107.6,20.9c-1.1,1.5-2.9,2.5-4.9,2.5c-3.3,0-6-2.7-6-6s2.7-6,6-6c2,0,3.8,1,4.9,2.5l3-2.2
			c-1.8-2.4-4.6-4-7.9-4c-5.4,0-9.7,4.3-9.7,9.7s4.3,9.7,9.7,9.7c3.2,0,6.1-1.6,7.9-4L107.6,20.9z"/>
	</g>
	<path class="st1" d="M119.7,46.6c0-3.8-2.7-7-6.5-7c-4.1,0-6.7,3.3-6.7,7.2c0,4.3,3.1,7.1,7.2,7.1c2.1,0,4.3-0.9,5.6-2.5l-2.1-2.1
		c-0.7,0.7-1.9,1.6-3.4,1.6c-2,0-3.5-1.3-3.7-3.3h9.5C119.7,47.3,119.7,47,119.7,46.6z M110.3,44.9c0.2-1.2,1.4-2.4,2.9-2.4
		c1.5,0,2.6,1.2,2.7,2.4H110.3z"/>
	<path class="st1" d="M132,48.9c-0.7,0.9-1.8,1.5-3,1.5c-2.1,0-3.7-1.7-3.7-3.7c0-2.1,1.7-3.7,3.7-3.7c1.2,0,2.3,0.6,3,1.5l2.8-2
		c-1.3-1.8-3.4-2.9-5.8-2.9c-3.9,0-7.1,3.2-7.1,7.1s3.2,7.1,7.1,7.1c2.4,0,4.5-1.1,5.8-2.9L132,48.9z"/>
	<path class="st1" d="M148.8,41.8c-1.1-1.3-2.8-2.1-4.6-2.1c-1.4,0-2.6,0.5-3.6,1.2v-6.1h-3.7v18.9h3.7v-9.1
		c0.6-0.7,1.7-1.5,3.1-1.5c0.8,0,1.5,0.3,2,0.8c0.5,0.5,0.8,1.2,0.8,2.5v7.3h3.7v-7.2C150.2,44.2,149.7,42.8,148.8,41.8z"/>
	<polygon class="st1" points="93.1,34.7 93.1,38.4 98.2,38.4 98.2,53.6 101.9,53.6 101.9,38.4 108.7,38.4 107.1,34.7 	"/>
	<polygon class="st1" points="169.9,39.8 166.6,47.7 165.4,45.2 163.5,40.9 163,39.8 159.4,39.8 161.7,45.2 159.9,49.4 153.4,34.7 
		149.7,34.7 158.2,53.6 161.8,53.6 163.6,49.4 165.5,53.6 167.7,53.6 173.6,39.8 	"/>
	<path class="st1" d="M199,43.2C199,43.2,199,43.2,199,43.2c0.2,0,0.2,0,0.3,0c0,0,0,0,0.1,0c0.1,0,0.1,0,0.2,0l0.4-3.4
		c-1.3-0.3-2.5-0.3-3.3,0.1l0,0c0,0,0,0-0.1,0c0,0,0,0-0.1,0c0,0,0,0,0,0c-0.3,0.2-0.6,0.3-0.8,0.6c0,0-0.1,0.1-0.1,0.1l0,0
		c-0.3,0.3-0.6,0.7-0.8,1c0,0,0,0,0,0.1c0.3-0.6,0.4-1.3,0.3-2h-3.9v13.9h3.7v-6.9c0-2.3,1.7-3.7,3.9-3.6l0,0
		C198.8,43.2,198.9,43.2,199,43.2z"/>
	<path class="st1" d="M181.3,39.6c-3.9,0-7.1,3.2-7.1,7.1s3.2,7.1,7.1,7.1s7.1-3.2,7.1-7.1C188.4,42.8,185.3,39.6,181.3,39.6z
		 M181.3,50.4c-2.1,0-3.7-1.7-3.7-3.7c0-2.1,1.7-3.7,3.7-3.7c2.1,0,3.7,1.7,3.7,3.7C185,48.8,183.4,50.4,181.3,50.4z"/>
	<g>
		<path class="st1" d="M218.8,49.4c0.9,0.8,2.4,1.3,3.8,1.3c1,0,1.8-0.5,1.8-1.1c0-2.1-6.6-1.3-6.6-5.7c0-2.6,2.5-4.3,5.2-4.3
			c1.8,0,3.7,0.7,4.6,1.4l-1.7,2.6c-0.7-0.5-1.6-0.9-2.6-0.9c-1,0-1.9,0.4-1.9,1.1c0,1.8,6.6,1.1,6.6,5.8c0,2.6-2.6,4.3-5.4,4.3
			c-1.9,0-3.9-0.7-5.5-1.8L218.8,49.4z"/>
	</g>
	<polygon class="st1" points="209.5,46.2 215.9,39.8 211.1,39.8 207.3,43.6 205.8,45 205.8,34.7 202.1,34.7 202.1,53.6 205.8,53.6 
		205.8,47.5 211.4,53.6 216.2,53.6 	"/>
	
		<linearGradient id="SVGID_1_" gradientUnits="userSpaceOnUse" x1="36.9274" y1="494.9456" x2="36.9274" y2="494.9456" gradientTransform="matrix(1 0 0 1 0 -434)">
		<stop  offset="0.1" style="stop-color:#29E7D6"/>
		<stop  offset="1" style="stop-color:#000078"/>
	</linearGradient>
	<path class="st2" d="M36.9,60.9L36.9,60.9L36.9,60.9L36.9,60.9z"/>
	
		<linearGradient id="SVGID_2_" gradientUnits="userSpaceOnUse" x1="12.3347" y1="464.7793" x2="73.8827" y2="464.7793" gradientTransform="matrix(1 0 0 1 0 -434)">
		<stop  offset="0.1" style="stop-color:#29E7D6"/>
		<stop  offset="1" style="stop-color:#000078"/>
	</linearGradient>
	<path class="st3" d="M43.1,0c-2.1,0-4.2,0.2-6.2,0.6C51,3.4,61.6,15.9,61.6,30.8c0,10.2-8.3,18.5-18.5,18.5c-0.2,0-0.3,0-0.5,0
		c0,0-0.1,0-0.2,0c-0.1,0-0.2,0-0.3,0c-0.1,0-0.2,0-0.2,0c-0.1,0-0.2,0-0.2,0s-0.2,0-0.2,0c0,0-0.1,0-0.2,0c-0.1,0-0.2,0-0.3,0h0
		c-9.2-1-16.4-8.8-16.4-18.3c0-8,5.1-14.9,12.3-17.4c-1.9-0.7-4-1-6.2-1c-10.2,0-18.5,8.3-18.5,18.5c0,0.3,0,0.5,0,0.8
		c0,0.1,0,0.2,0,0.2c0,0.2,0,0.3,0,0.5c0,0.1,0,0.2,0,0.3c0,0.2,0,0.3,0,0.5c0,0.1,0,0.2,0,0.3c0,0.2,0,0.3,0,0.5c0,0.1,0,0.2,0,0.3
		c0,0.2,0,0.3,0,0.5c0,0.1,0,0.2,0,0.3c0,0.2,0,0.3,0.1,0.5c0,0.1,0,0.2,0,0.2c0,0.2,0.1,0.5,0.1,0.7v0c0,0.2,0.1,0.5,0.2,0.7
		c0,0.1,0,0.2,0,0.2c0,0.2,0.1,0.3,0.1,0.5c0,0.1,0,0.2,0.1,0.3c0,0.2,0.1,0.3,0.1,0.4c0,0.1,0,0.2,0.1,0.3c0,0.2,0.1,0.3,0.1,0.4
		c0,0.1,0,0.2,0.1,0.3c0,0.2,0.1,0.3,0.1,0.4c0,0.1,0,0.2,0.1,0.3c0,0.2,0.1,0.3,0.2,0.4c0,0.1,0,0.2,0.1,0.2
		c0.1,0.2,0.1,0.4,0.2,0.6c0,0,0,0.1,0,0.1c0.1,0.2,0.2,0.4,0.3,0.7c0,0.1,0.1,0.2,0.1,0.2c0.1,0.2,0.1,0.3,0.2,0.4
		c0,0.1,0.1,0.2,0.1,0.3c0,0.1,0.1,0.3,0.2,0.4c0,0.1,0.1,0.2,0.1,0.3c0,0.1,0.1,0.2,0.2,0.4c0,0.1,0.1,0.2,0.1,0.3
		c0.1,0.1,0.1,0.2,0.2,0.4c0,0.1,0.1,0.2,0.2,0.3c0.1,0.1,0.1,0.3,0.2,0.4c0,0.1,0.1,0.2,0.1,0.2c0.1,0.2,0.2,0.3,0.3,0.5
		c0,0,0,0.1,0.1,0.2c0.1,0.2,0.2,0.4,0.3,0.6c0,0.1,0.1,0.2,0.2,0.2c0.1,0.1,0.2,0.2,0.2,0.4c0,0.1,0.1,0.2,0.2,0.3
		c0.1,0.1,0.2,0.2,0.2,0.3c0.1,0.1,0.1,0.2,0.2,0.3c0.1,0.1,0.2,0.2,0.2,0.3s0.1,0.2,0.2,0.3c0.1,0.1,0.2,0.2,0.2,0.3
		c0.1,0.1,0.1,0.2,0.2,0.3c0.1,0.1,0.2,0.2,0.2,0.3s0.1,0.2,0.2,0.2c0.1,0.1,0.2,0.2,0.3,0.3c0,0.1,0.1,0.1,0.2,0.2
		c0.2,0.2,0.3,0.3,0.4,0.5c0.1,0.1,0.1,0.2,0.2,0.2c0.1,0.1,0.2,0.2,0.3,0.3c0.1,0.1,0.2,0.2,0.2,0.2c0.1,0.1,0.2,0.2,0.3,0.3
		c0.1,0.1,0.2,0.2,0.2,0.2c0.1,0.1,0.2,0.2,0.3,0.3c0.1,0.1,0.2,0.2,0.2,0.2c0.1,0.1,0.2,0.2,0.3,0.3c0.1,0.1,0.2,0.2,0.2,0.2
		c0.1,0.1,0.2,0.2,0.3,0.2c0.1,0.1,0.2,0.2,0.2,0.2c0.1,0.1,0.2,0.2,0.3,0.3c0.1,0.1,0.2,0.2,0.3,0.2c0.2,0.1,0.3,0.3,0.5,0.4
		c0.1,0.1,0.2,0.2,0.3,0.2c0.1,0.1,0.2,0.2,0.3,0.2c0.1,0.1,0.2,0.2,0.3,0.2c0.1,0.1,0.2,0.2,0.3,0.2c0.1,0.1,0.2,0.2,0.3,0.2
		c0.1,0.1,0.2,0.2,0.3,0.2c0.1,0.1,0.2,0.2,0.3,0.2c0.1,0.1,0.2,0.1,0.3,0.2c0.1,0.1,0.2,0.2,0.3,0.2c0.1,0.1,0.2,0.1,0.3,0.2
		c0.1,0.1,0.2,0.1,0.3,0.2c0.1,0.1,0.2,0.1,0.3,0.2c0.2,0.1,0.3,0.2,0.5,0.3c0.1,0.1,0.3,0.2,0.4,0.2c0.1,0.1,0.2,0.1,0.3,0.2
		c0.1,0,0.2,0.1,0.3,0.2c0.1,0.1,0.2,0.1,0.3,0.2c0.1,0,0.2,0.1,0.3,0.2c0.1,0,0.2,0.1,0.3,0.2c0.1,0,0.2,0.1,0.3,0.2
		c0.1,0,0.2,0.1,0.3,0.2c0.1,0,0.2,0.1,0.3,0.2c0.1,0,0.2,0.1,0.3,0.2c0.1,0,0.2,0.1,0.3,0.1c0.1,0,0.2,0.1,0.3,0.2
		c0.1,0,0.2,0.1,0.3,0.1c0.2,0.1,0.5,0.2,0.7,0.3c0.1,0,0.2,0,0.2,0.1c0.1,0,0.2,0.1,0.3,0.1c0.1,0,0.2,0.1,0.3,0.1
		c0.1,0,0.2,0.1,0.3,0.1c0.1,0,0.2,0.1,0.3,0.1c0.1,0,0.2,0.1,0.4,0.1c0.1,0,0.2,0.1,0.3,0.1c0.1,0,0.2,0.1,0.4,0.1
		c0.1,0,0.2,0.1,0.3,0.1c0.1,0,0.2,0.1,0.4,0.1c0.1,0,0.2,0,0.3,0.1c0.1,0,0.2,0.1,0.4,0.1c0.1,0,0.2,0,0.3,0.1c0.1,0,0.2,0,0.4,0.1
		c0.1,0,0.3,0,0.4-0.1c-0.1,0-0.3,0-0.4,0.1c2,0.4,4.1,0.6,6.2,0.6c17,0,30.8-13.8,30.8-30.8S60.1,0,43.1,0z"/>
	<g>
		<g>
			<g>
				<defs>
					<path id="SVGID_3_" d="M36.9,60.9c-14.1-2.8-24.6-15.3-24.6-30.1c0-10.2,8.3-18.5,18.5-18.5s18.5,8.3,18.5,18.5
						c0,8-5.1,14.9-12.3,17.4c1.9,0.7,4,1.1,6.2,1.1c10.2,0,18.5-8.3,18.5-18.5l0,0l0,0C61.6,13.8,47.8,0,30.8,0
						C13.8,0,0,13.8,0,30.8s13.8,30.8,30.8,30.8c2.3,0,4.4-0.2,6.6-0.7C37.2,60.9,37,60.9,36.9,60.9z"/>
				</defs>
				<clipPath id="SVGID_4_">
					<use xlink:href="#SVGID_3_"  style="overflow:visible;"/>
				</clipPath>
				<path class="st4" d="M26.8,6.5L18.6,0l0.5-0.7l8.8,6.9l-3.7,8.2l-0.8-0.3L26.8,6.5z M30.8,12.5l0.6,0.7l6.7-6l-5.2-9.9l-0.8,0.4
					L37,7L30.8,12.5z M7.2,23.7l5.3,6.4l0.7-0.5l-5.7-6.9l-10.1,4.8l0.4,0.8L7.2,23.7z M25.8,13.2l0.7,0.5l4.8-7.6L23.6-2L23-1.4
					l7.2,7.6L25.8,13.2z M28.3,12.7l0.7,0.6l5.8-6.9l-6.5-9.1l-0.7,0.5l6.1,8.5L28.3,12.7z M21.1,15.3l0.8,0.2l2.5-8.6l-9.7-5.6
					L14.4,2l9.1,5.3L21.1,15.3z M10.1,17.5l3.3,7.6l0.8-0.3l-3.6-8.2l-11.1,1.8l0.2,0.8L10.1,17.5z M8.5,20.5l4.4,7.1l0.7-0.5
					l-4.7-7.7l-10.6,3.4l0.3,0.8L8.5,20.5z M17.2,18.5h0.9l0-9L7.3,6.8L7.1,7.7l10.2,2.6L17.2,18.5z M15.7,20.5l0.8-0.1l-1.2-8.9
					L4.2,10.3l-0.1,0.9l10.5,1.1L15.7,20.5z M12.1,14.7l2.3,8l0.8-0.2l-2.4-8.7L1.6,14.2l0,0.9L12.1,14.7z M42.6,17.7l9-0.3
					l2.4-10.9l-0.8-0.2l-2.3,10.3l-8.3,0.2L42.6,17.7z M44.4,18.6l-0.1,0.9l8.9,1L57.1,10l-0.8-0.3l-3.6,9.8L44.4,18.6z M45.9,20.6
					l-0.2,0.8l8.7,2.2l5.3-9.8l-0.8-0.4l-5,9.3L45.9,20.6z M47.2,22.8l-0.3,0.8l8.3,3.4l6.6-9l-0.7-0.5L54.9,26L47.2,22.8z
					 M33.3,12.7l0.5,0.7l7.5-5L37.5-2.1l-0.8,0.3l3.5,9.9L33.3,12.7z M54.7,36.2l-5.7-6l-0.6,0.6l6.2,6.5l9.7-5.6L63.9,31L54.7,36.2
					z M48.1,25.2l-0.4,0.8l7.8,4.6l7.8-8l-0.6-0.6l-7.4,7.5L48.1,25.2z M35.8,13.3l0.4,0.8l8.1-3.9l-2.3-11l-0.8,0.2l2.1,10.3
					L35.8,13.3z M48.7,27.6l-0.5,0.7l7,5.6l8.8-6.8l-0.5-0.7l-8.3,6.4L48.7,27.6z M38.2,14.1l0.3,0.8l8.6-2.7L46.4,1.1l-0.9,0
					l0.7,10.5L38.2,14.1z M40.6,16.2l8.9-1.5l0.8-11.1l-0.9-0.1l-0.8,10.5l-8.2,1.4L40.6,16.2z M19.1,16.8l0.8,0.1L21.2,8L10.9,3.8
					l-0.3,0.8l9.7,4L19.1,16.8z M41.5,45.5l-0.8-0.2l-1.9,8.8l10,5l0.4-0.8l-9.4-4.7L41.5,45.5z M39.3,46.9l-0.8-0.3L35.4,55
					l9.2,6.3l0.5-0.7l-8.7-5.9L39.3,46.9z M43.4,43.9l-0.9-0.1l-0.7,9l10.6,3.5l0.3-0.8l-10-3.3L43.4,43.9z M34.6,48.6l-0.7-0.5
					l-5.3,7.2l7.1,8.6l0.7-0.5l-6.7-8.1L34.6,48.6z M37,47.9l-0.8-0.4l-4.3,7.9l8.3,7.5l0.6-0.7L33,55.2L37,47.9z M50.5,45.5
					l-2.8-7.8L46.9,38l3,8.5l11.1-1.1L61,44.4L50.5,45.5z M52.3,42.6l-3.9-7.4l-0.8,0.4l4.2,8L62.7,41l-0.2-0.8L52.3,42.6z
					 M53.7,39.5l-4.9-6.7l-0.7,0.5l5.2,7.3l10.4-4.1l-0.3-0.8L53.7,39.5z M45.1,42l-0.9,0l0.6,9l11,2l0.2-0.8l-10.3-1.9L45.1,42z
					 M46.5,39.9l-0.8,0.2l1.8,8.8l11.2,0.5l0-0.9l-10.5-0.4L46.5,39.9z M32,49l-0.6-0.6l-6.3,6.4l5.9,9.5l0.7-0.5l-5.5-9L32,49z
					 M29.5,49l-0.5-0.7l-7.1,5.5L26.3,64l0.8-0.3l-4.2-9.6L29.5,49z M15,39.9l0.3-0.8l-8.5-2.8l-6,9.5l0.7,0.5l5.6-8.9L15,39.9z
					 M12.6,32.6l0.6-0.7l-6.6-6.1l-9.3,6.2l0.5,0.7L6.5,27L12.6,32.6z M16.4,42l0.2-0.8l-8.8-1.6L3.1,49.7l0.8,0.3l4.3-9.6L16.4,42z
					 M13.9,37.6l0.4-0.8l-8-4L-1,41.4l0.7,0.6l6.8-8L13.9,37.6z M13.1,35.2l0.5-0.7l-7.4-5.1l-8.4,7.4l0.6,0.7l7.9-7L13.1,35.2z
					 M18.1,43.9l0-0.9l-9-0.4L6,53.3l0.8,0.2l2.9-10.1L18.1,43.9z M24.5,47.9l-0.3-0.8l-8.4,3.3l1.5,11.1l0.8-0.1L16.8,51L24.5,47.9
					z M27,48.6l-0.4-0.8l-7.8,4.4l3,10.8l0.8-0.2l-2.8-10.1L27,48.6z M22,46l-8.7,2.1l-0.1,11.2h0.9l0.1-10.5l8.1-2L22,46z M20,44.7
					l-9,0.9L9.4,56.6l0.8,0.1l1.5-10.4l8.3-0.8L20,44.7z"/>
			</g>
		</g>
	</g>
</g>
</svg>
